<svg width="512" height="468" viewBox="0 0 512 468" fill="none" xmlns="http://www.w3.org/2000/svg">
<path d="M503.291 15.0401C482.91 28.1883 470.477 51.5974 470.477 76.8257V244.592H486.433H504.395V27.9728V14.3281L503.291 15.0401Z" fill="#E0E0E2"/>
<path d="M504.397 27.9728V14.3281L503.293 15.0401C482.912 28.1883 470.479 51.5974 470.479 76.8257V244.592H486.435V76.8257C486.433 58.5021 492.997 41.1431 504.397 27.9728Z" fill="#C6C5CB"/>
<path d="M486.432 76.8246V244.591H504.394V27.9717C492.996 41.142 486.432 58.501 486.432 76.8246Z" fill="#E0E0E2"/>
<path d="M69.7605 115.394H9.39252H7.60352V121.211C7.60352 139.865 21.9175 154.987 39.5755 154.987C57.2335 154.987 71.5475 139.865 71.5475 121.211V115.394H69.7605Z" fill="#E0E0E2"/>
<path d="M39.5765 138.031C25.6155 138.031 13.7505 128.573 9.39252 115.396H7.60352V121.213C7.60352 139.867 21.9175 154.989 39.5755 154.989C57.2335 154.989 71.5475 139.867 71.5475 121.213V115.396H69.7585C65.4015 128.573 53.5375 138.031 39.5765 138.031Z" fill="#C6C5CB"/>
<path d="M256.751 459.971C360.44 459.971 444.496 371.173 444.496 261.635C444.496 152.096 360.44 63.2979 256.751 63.2979C153.062 63.2979 69.0059 152.096 69.0059 261.635C69.0059 371.173 153.062 459.971 256.751 459.971Z" fill="#D2E7F8"/>
<path d="M256.751 386.739C322.155 386.739 375.175 330.728 375.175 261.634C375.175 192.541 322.155 136.529 256.751 136.529C191.347 136.529 138.327 192.541 138.327 261.634C138.327 330.728 191.347 386.739 256.751 386.739Z" fill="#B3D8F5"/>
<path d="M256.747 55.2637C149.033 55.2637 61.4004 147.841 61.4004 261.631C61.4004 375.423 149.033 468 256.747 468C364.462 468 452.094 375.423 452.094 261.631C452.094 147.84 364.462 55.2637 256.747 55.2637ZM256.747 451.933C157.419 451.933 76.6094 366.564 76.6094 261.631C76.6094 156.699 157.419 71.3307 256.747 71.3307C356.076 71.3307 436.885 156.699 436.885 261.631C436.885 366.564 356.076 451.933 256.747 451.933Z" fill="black"/>
<path d="M145.742 261.632C145.742 196.971 195.539 144.366 256.747 144.366C274.572 144.366 291.591 148.69 307.331 157.219L314.272 142.922C296.364 133.219 277.01 128.299 256.748 128.299C187.154 128.299 130.534 188.112 130.534 261.632C130.534 273.498 132.012 285.27 134.926 296.62L149.604 292.412C147.04 282.434 145.742 272.078 145.742 261.632Z" fill="black"/>
<path d="M156.761 312.635L143.07 319.632C151.049 337.055 162.795 352.749 177.04 365.017L186.651 352.565C174.116 341.768 163.78 327.96 156.761 312.635Z" fill="black"/>
<path d="M333.721 155.957L324.439 168.683C351.965 191.091 367.753 224.969 367.753 261.631C367.753 326.292 317.956 378.899 256.748 378.899C234.957 378.899 213.868 372.234 195.757 359.629L187.389 373.044C207.991 387.385 231.974 394.966 256.748 394.966C326.343 394.966 382.962 335.153 382.962 261.631C382.96 219.948 365.013 181.431 333.721 155.957Z" fill="black"/>
<path d="M79.097 123.427H79.154V121.211V107.36V14.3281H63.945V107.361H47.181V14.3281H31.972V107.361H15.209V14.3281H0V107.361V121.212V123.428H0.057C1.017 142.743 14.443 158.62 31.973 162.239V459.969H47.182V162.239C64.71 158.619 78.136 142.743 79.097 123.427ZM39.577 146.955C26.847 146.955 16.366 136.588 15.299 123.428H63.856C62.787 136.588 52.306 146.955 39.577 146.955Z" fill="black"/>
<path d="M462.872 76.8247V252.625H496.791V459.968H512V252.625V154.988V0L499.328 8.18405C476.841 22.6908 462.872 48.9902 462.872 76.8247ZM496.791 154.987V236.558H478.08V76.8236C478.08 59.2618 485.028 42.4637 496.791 30.4512V154.987Z" fill="black"/>
<g filter="url(#filter0_d_3051_7882)">
<path d="M244.03 292.295V291.447C244.124 282.449 245.066 275.288 246.857 269.964C248.647 264.641 251.191 260.33 254.489 257.032C257.786 253.734 261.744 250.696 266.361 247.916C269.14 246.22 271.637 244.218 273.852 241.909C276.066 239.554 277.809 236.845 279.081 233.783C280.4 230.72 281.06 227.328 281.06 223.607C281.06 218.99 279.976 214.985 277.809 211.593C275.642 208.201 272.744 205.586 269.117 203.749C265.489 201.912 261.461 200.993 257.033 200.993C253.17 200.993 249.448 201.794 245.867 203.396C242.287 204.997 239.295 207.518 236.892 210.957C234.49 214.396 233.1 218.895 232.723 224.455H214.915C215.292 216.446 217.365 209.591 221.134 203.89C224.95 198.19 229.967 193.832 236.186 190.817C242.452 187.802 249.401 186.294 257.033 186.294C265.324 186.294 272.532 187.943 278.657 191.241C284.829 194.539 289.587 199.061 292.932 204.809C296.324 210.557 298.02 217.105 298.02 224.455C298.02 229.637 297.219 234.324 295.617 238.517C294.062 242.71 291.801 246.456 288.833 249.754C285.912 253.051 282.379 255.972 278.233 258.516C274.087 261.107 270.766 263.84 268.269 266.714C265.772 269.54 263.958 272.909 262.827 276.819C261.697 280.73 261.084 285.606 260.99 291.447V292.295H244.03ZM253.075 334.131C249.589 334.131 246.597 332.882 244.1 330.385C241.604 327.888 240.355 324.897 240.355 321.411C240.355 317.924 241.604 314.933 244.1 312.436C246.597 309.939 249.589 308.69 253.075 308.69C256.562 308.69 259.553 309.939 262.05 312.436C264.547 314.933 265.795 317.924 265.795 321.411C265.795 323.719 265.207 325.839 264.029 327.771C262.898 329.702 261.367 331.257 259.435 332.435C257.551 333.565 255.431 334.131 253.075 334.131Z" fill="#1F2933"/>
</g>
<defs>
<filter id="filter0_d_3051_7882" x="192.915" y="186.294" width="127.104" height="198.837" filterUnits="userSpaceOnUse" color-interpolation-filters="sRGB">
<feFlood flood-opacity="0" result="BackgroundImageFix"/>
<feColorMatrix in="SourceAlpha" type="matrix" values="0 0 0 0 0 0 0 0 0 0 0 0 0 0 0 0 0 0 127 0" result="hardAlpha"/>
<feOffset dy="29"/>
<feGaussianBlur stdDeviation="11"/>
<feComposite in2="hardAlpha" operator="out"/>
<feColorMatrix type="matrix" values="0 0 0 0 0 0 0 0 0 0 0 0 0 0 0 0 0 0 0.25 0"/>
<feBlend mode="normal" in2="BackgroundImageFix" result="effect1_dropShadow_3051_7882"/>
<feBlend mode="normal" in="SourceGraphic" in2="effect1_dropShadow_3051_7882" result="shape"/>
</filter>
</defs>
</svg>
