<svg width="512" height="512" viewBox="0 0 512 512" fill="none" xmlns="http://www.w3.org/2000/svg">
<g filter="url(#filter0_ddd_2254_7709)">
<ellipse cx="118.199" cy="265.15" rx="78.3" ry="126.45" fill="white"/>
<path d="M117.495 119.065C88.6893 125.365 63.3393 146.257 48.2823 176.293C23.7783 225.229 16.0953 280.921 27.5433 326.932C34.9953 356.968 50.2053 382.624 69.0243 396.913C75.6303 401.905 87.8433 407.896 95.5263 409.894C109.047 413.275 125.562 412.582 140.541 407.821C159.975 401.677 180.87 387.004 192.315 371.41C197.307 364.573 202.377 354.049 203.913 347.059C205.449 340.147 205.065 328.315 203.145 323.092C202.455 321.247 201.993 319.558 202.146 319.405C202.299 319.252 204.912 320.941 207.984 323.092C220.275 331.696 227.112 341.452 230.874 355.894C232.488 362.116 232.872 365.188 232.95 374.638L233.025 386.008H238.863H244.701L245.16 380.476C245.775 372.949 244.47 360.196 242.241 351.67C236.634 330.469 223.806 316.105 200.835 305.35C182.322 296.671 166.806 293.596 156.204 296.44C148.446 298.513 137.076 305.734 135.156 309.805C132.468 315.412 136.617 325.63 142.914 328.855C145.833 330.391 149.598 330.16 156.051 328.318C169.494 324.325 176.79 330.853 173.103 343.45C171.336 349.519 169.416 353.206 166.191 356.434C160.122 362.503 154.746 358.507 150.903 345.064C149.751 341.146 149.214 340.456 146.907 339.457C144.678 338.536 143.91 338.536 142.146 339.304C139.149 340.762 138.459 343.606 139.611 349.291C141.3 357.97 138.381 365.422 131.085 370.645C121.56 377.557 108.501 376.483 100.05 368.032C94.2903 362.347 91.9083 353.821 94.9803 349.825C97.1313 347.059 97.4373 345.601 96.5943 342.988C94.8273 337.996 90.5253 337.84 85.1493 342.604C82.0833 345.37 80.7003 346.06 78.4713 346.06C70.4823 346.06 62.7993 334.306 62.6463 321.862C62.5683 315.718 64.2603 311.491 68.2533 308.188C70.8663 305.959 77.1633 303.808 81.0813 303.808C85.9983 303.808 89.0703 298.276 86.6883 293.821C85.1523 290.98 83.1543 290.518 76.6263 291.592C68.3313 292.897 63.1833 291.745 58.5753 287.521C54.1203 283.378 52.5063 279.001 52.5063 270.781C52.5063 260.026 56.9613 251.578 64.7193 247.582C68.6373 245.509 76.3953 245.353 80.8503 247.273C85.1523 249.04 90.6843 248.887 92.4513 246.967C95.2923 243.895 93.4503 236.98 89.8383 236.98C83.8473 236.98 77.2413 231.757 73.3983 223.999C71.0943 219.235 70.9413 218.467 70.9413 210.481C70.9413 204.028 71.2473 201.109 72.4023 198.19C75.9363 188.971 82.3113 183.211 89.1483 183.211C94.2963 183.211 97.5213 184.747 101.898 189.355C104.895 192.505 106.2 193.273 108.198 193.351C111.039 193.429 114.342 190.432 114.342 187.744C114.342 185.902 112.575 182.29 110.961 180.985C109.194 179.527 106.044 172.228 105.429 168.235C103.2 153.256 123.789 140.428 137.616 148.108C142.533 150.874 144.528 155.176 144.99 164.392C145.452 172.612 146.142 174.301 149.523 175.606C150.828 176.143 152.136 175.912 153.978 175.069C162.045 171.229 172.185 181.753 174.336 196.27C175.104 201.109 175.029 202.801 173.952 206.947C172.494 212.554 169.728 217.009 165.657 220.312L162.816 222.616L159.897 220.387C156.516 217.852 147.837 209.248 142.767 203.335C138.696 198.727 135.777 198.034 133.011 201.031C129.171 205.408 130.323 208.252 140.463 218.776C152.601 231.451 162.585 238.594 191.931 255.418C217.587 270.091 226.884 276.928 236.64 288.142C254.616 308.959 262.605 333.616 265.293 377.02L265.83 385.24H271.746H277.659L277.428 379.633C275.892 344.221 269.976 318.331 259.068 299.05C248.391 280.075 234.411 266.401 212.67 253.495C207.831 250.654 203.451 247.963 202.992 247.579C202.377 247.117 202.608 244.66 203.682 238.744C205.833 226.99 205.986 198.568 203.913 187.429C201.915 176.368 199.227 167.686 195.387 159.622C184.941 137.575 168.195 123.595 146.532 119.062C139.773 117.607 124.179 117.685 117.495 119.065Z" fill="#1264D1"/>
<path d="M121.413 215.701L118.11 219.082L133.626 231.526C148.914 243.97 151.218 246.43 151.218 250.654C151.218 251.806 151.986 252.268 154.137 252.652C159.285 253.573 163.509 258.796 163.509 264.481C163.509 269.935 160.668 273.853 154.83 276.541C152.91 277.462 148.455 281.689 142.308 288.448C137.085 294.286 131.169 300.43 129.171 302.122C125.715 305.041 125.562 305.347 126.714 306.502C127.944 307.732 128.403 307.423 133.857 302.353C147.222 289.987 163.662 286.528 183.174 291.907C212.058 299.818 234.105 316.18 244.551 337.228C250.083 348.367 251.235 353.974 251.694 371.257L252.003 386.005H255.921H259.761L259.299 372.715C258.453 347.749 254.151 328.93 245.472 311.953C240.48 302.122 234.564 294.208 226.038 286.144C217.74 278.155 211.749 274.084 193.851 263.944C167.118 248.734 146.454 233.908 132.552 220.003C128.403 215.779 124.947 212.398 124.794 212.398C124.716 212.398 123.18 213.859 121.413 215.701Z" fill="#1264D1"/>
<path d="M110.274 227.917C108.429 229.375 107.508 232.45 108.354 234.754C108.738 235.831 111.351 238.441 114.114 240.514L119.262 244.279L111.657 245.278C105.819 246.046 103.59 246.661 102.285 247.891C100.134 249.889 99.9027 254.035 101.901 256.033C103.131 257.263 104.898 257.416 121.95 257.185C140.079 257.032 140.769 256.954 142.536 255.34C143.688 254.188 144.303 252.73 144.303 251.116C144.303 248.275 142.998 247.123 125.022 233.68C115.881 226.765 113.193 225.766 110.274 227.917Z" fill="#1264D1"/>
<path d="M147.763 259.027C146.917 259.258 140.695 261.715 133.936 264.403C119.803 270.241 113.425 272.314 109.969 272.314C102.517 272.314 98.6767 278.23 103.21 282.685C105.514 285.067 108.586 285.142 117.037 283.147L123.181 281.689L120.415 284.071C118.879 285.454 116.191 287.758 114.424 289.294C110.659 292.519 110.275 295.21 113.194 298.051C117.496 302.428 122.719 299.356 137.083 284.224C143.152 277.849 148.759 272.623 151.678 270.781C156.748 267.631 157.9 265.48 156.595 262.024C155.443 258.949 152.371 257.875 147.763 259.027Z" fill="#1264D1"/>
</g>
<g filter="url(#filter1_ddd_2254_7709)">
<ellipse cx="393.8" cy="265.15" rx="78.3" ry="126.45" fill="white"/>
<path d="M394.505 119.065C423.311 125.365 448.661 146.257 463.718 176.293C488.222 225.229 495.905 280.921 484.457 326.932C477.005 356.968 461.795 382.624 442.976 396.913C436.37 401.905 424.157 407.896 416.474 409.894C402.953 413.275 386.438 412.582 371.459 407.821C352.025 401.677 331.13 387.004 319.685 371.41C314.693 364.573 309.623 354.049 308.087 347.059C306.551 340.147 306.935 328.315 308.855 323.092C309.545 321.247 310.007 319.558 309.854 319.405C309.701 319.252 307.088 320.941 304.016 323.092C291.725 331.696 284.888 341.452 281.126 355.894C279.512 362.116 279.128 365.188 279.05 374.638L278.975 386.008H273.137H267.299L266.84 380.476C266.225 372.949 267.53 360.196 269.759 351.67C275.366 330.469 288.194 316.105 311.165 305.35C329.678 296.671 345.194 293.596 355.796 296.44C363.554 298.513 374.924 305.734 376.844 309.805C379.532 315.412 375.383 325.63 369.086 328.855C366.167 330.391 362.402 330.16 355.949 328.318C342.506 324.325 335.21 330.853 338.897 343.45C340.664 349.519 342.584 353.206 345.809 356.434C351.878 362.503 357.254 358.507 361.097 345.064C362.249 341.146 362.786 340.456 365.093 339.457C367.322 338.536 368.09 338.536 369.854 339.304C372.851 340.762 373.541 343.606 372.389 349.291C370.7 357.97 373.619 365.422 380.915 370.645C390.44 377.557 403.499 376.483 411.95 368.032C417.71 362.347 420.092 353.821 417.02 349.825C414.869 347.059 414.563 345.601 415.406 342.988C417.173 337.996 421.475 337.84 426.851 342.604C429.917 345.37 431.3 346.06 433.529 346.06C441.518 346.06 449.201 334.306 449.354 321.862C449.432 315.718 447.74 311.491 443.747 308.188C441.134 305.959 434.837 303.808 430.919 303.808C426.002 303.808 422.93 298.276 425.312 293.821C426.848 290.98 428.846 290.518 435.374 291.592C443.669 292.897 448.817 291.745 453.425 287.521C457.88 283.378 459.494 279.001 459.494 270.781C459.494 260.026 455.039 251.578 447.281 247.582C443.363 245.509 435.605 245.353 431.15 247.273C426.848 249.04 421.316 248.887 419.549 246.967C416.708 243.895 418.55 236.98 422.162 236.98C428.153 236.98 434.759 231.757 438.602 223.999C440.906 219.235 441.059 218.467 441.059 210.481C441.059 204.028 440.753 201.109 439.598 198.19C436.064 188.971 429.689 183.211 422.852 183.211C417.704 183.211 414.479 184.747 410.102 189.355C407.105 192.505 405.8 193.273 403.802 193.351C400.961 193.429 397.658 190.432 397.658 187.744C397.658 185.902 399.425 182.29 401.039 180.985C402.806 179.527 405.956 172.228 406.571 168.235C408.8 153.256 388.211 140.428 374.384 148.108C369.467 150.874 367.472 155.176 367.01 164.392C366.548 172.612 365.858 174.301 362.477 175.606C361.172 176.143 359.864 175.912 358.022 175.069C349.955 171.229 339.815 181.753 337.664 196.27C336.896 201.109 336.971 202.801 338.048 206.947C339.506 212.554 342.272 217.009 346.343 220.312L349.184 222.616L352.103 220.387C355.484 217.852 364.163 209.248 369.233 203.335C373.304 198.727 376.223 198.034 378.989 201.031C382.829 205.408 381.677 208.252 371.537 218.776C359.399 231.451 349.415 238.594 320.069 255.418C294.413 270.091 285.116 276.928 275.36 288.142C257.384 308.959 249.395 333.616 246.707 377.02L246.17 385.24H240.254H234.341L234.572 379.633C236.108 344.221 242.024 318.331 252.932 299.05C263.609 280.075 277.589 266.401 299.33 253.495C304.169 250.654 308.549 247.963 309.008 247.579C309.623 247.117 309.392 244.66 308.318 238.744C306.167 226.99 306.014 198.568 308.087 187.429C310.085 176.368 312.773 167.686 316.613 159.622C327.059 137.575 343.805 123.595 365.468 119.062C372.227 117.607 387.821 117.685 394.505 119.065Z" fill="#1264D1"/>
<path d="M390.587 215.701L393.89 219.082L378.374 231.526C363.086 243.97 360.782 246.43 360.782 250.654C360.782 251.806 360.014 252.268 357.863 252.652C352.715 253.573 348.491 258.796 348.491 264.481C348.491 269.935 351.332 273.853 357.17 276.541C359.09 277.462 363.545 281.689 369.692 288.448C374.915 294.286 380.831 300.43 382.829 302.122C386.285 305.041 386.438 305.347 385.286 306.502C384.056 307.732 383.597 307.423 378.143 302.353C364.778 289.987 348.338 286.528 328.826 291.907C299.942 299.818 277.895 316.18 267.449 337.228C261.917 348.367 260.765 353.974 260.306 371.257L259.997 386.005H256.079H252.239L252.701 372.715C253.547 347.749 257.849 328.93 266.528 311.953C271.52 302.122 277.436 294.208 285.962 286.144C294.26 278.155 300.251 274.084 318.149 263.944C344.882 248.734 365.546 233.908 379.448 220.003C383.597 215.779 387.053 212.398 387.206 212.398C387.284 212.398 388.82 213.859 390.587 215.701Z" fill="#1264D1"/>
<path d="M401.726 227.917C403.571 229.375 404.492 232.45 403.646 234.754C403.262 235.831 400.649 238.441 397.886 240.514L392.738 244.279L400.343 245.278C406.181 246.046 408.41 246.661 409.715 247.891C411.866 249.889 412.097 254.035 410.099 256.033C408.869 257.263 407.102 257.416 390.05 257.185C371.921 257.032 371.231 256.954 369.464 255.34C368.312 254.188 367.697 252.73 367.697 251.116C367.697 248.275 369.002 247.123 386.978 233.68C396.119 226.765 398.807 225.766 401.726 227.917Z" fill="#1264D1"/>
<path d="M364.237 259.027C365.083 259.258 371.305 261.715 378.064 264.403C392.197 270.241 398.575 272.314 402.031 272.314C409.483 272.314 413.323 278.23 408.79 282.685C406.486 285.067 403.414 285.142 394.963 283.147L388.819 281.689L391.585 284.071C393.121 285.454 395.809 287.758 397.576 289.294C401.341 292.519 401.725 295.21 398.806 298.051C394.504 302.428 389.281 299.356 374.917 284.224C368.848 277.849 363.241 272.623 360.322 270.781C355.252 267.631 354.1 265.48 355.405 262.024C356.557 258.949 359.629 257.875 364.237 259.027Z" fill="#1264D1"/>
</g>
<defs>
<filter id="filter0_ddd_2254_7709" x="-8" y="111" width="316" height="316" filterUnits="userSpaceOnUse" color-interpolation-filters="sRGB">
<feFlood flood-opacity="0" result="BackgroundImageFix"/>
<feColorMatrix in="SourceAlpha" type="matrix" values="0 0 0 0 0 0 0 0 0 0 0 0 0 0 0 0 0 0 127 0" result="hardAlpha"/>
<feOffset/>
<feGaussianBlur stdDeviation="0.5"/>
<feColorMatrix type="matrix" values="0 0 0 0 0 0 0 0 0 0 0 0 0 0 0 0 0 0 0.5 0"/>
<feBlend mode="normal" in2="BackgroundImageFix" result="effect1_dropShadow_2254_7709"/>
<feColorMatrix in="SourceAlpha" type="matrix" values="0 0 0 0 0 0 0 0 0 0 0 0 0 0 0 0 0 0 127 0" result="hardAlpha"/>
<feOffset/>
<feGaussianBlur stdDeviation="1"/>
<feColorMatrix type="matrix" values="0 0 0 0 0 0 0 0 0 0 0 0 0 0 0 0 0 0 0.5 0"/>
<feBlend mode="normal" in2="effect1_dropShadow_2254_7709" result="effect2_dropShadow_2254_7709"/>
<feColorMatrix in="SourceAlpha" type="matrix" values="0 0 0 0 0 0 0 0 0 0 0 0 0 0 0 0 0 0 127 0" result="hardAlpha"/>
<feOffset dy="4"/>
<feGaussianBlur stdDeviation="4"/>
<feColorMatrix type="matrix" values="0 0 0 0 0 0 0 0 0 0 0 0 0 0 0 0 0 0 0.5 0"/>
<feBlend mode="normal" in2="effect2_dropShadow_2254_7709" result="effect3_dropShadow_2254_7709"/>
<feBlend mode="normal" in="SourceGraphic" in2="effect3_dropShadow_2254_7709" result="shape"/>
</filter>
<filter id="filter1_ddd_2254_7709" x="204" y="111" width="316" height="316" filterUnits="userSpaceOnUse" color-interpolation-filters="sRGB">
<feFlood flood-opacity="0" result="BackgroundImageFix"/>
<feColorMatrix in="SourceAlpha" type="matrix" values="0 0 0 0 0 0 0 0 0 0 0 0 0 0 0 0 0 0 127 0" result="hardAlpha"/>
<feOffset/>
<feGaussianBlur stdDeviation="0.5"/>
<feColorMatrix type="matrix" values="0 0 0 0 0 0 0 0 0 0 0 0 0 0 0 0 0 0 0.5 0"/>
<feBlend mode="normal" in2="BackgroundImageFix" result="effect1_dropShadow_2254_7709"/>
<feColorMatrix in="SourceAlpha" type="matrix" values="0 0 0 0 0 0 0 0 0 0 0 0 0 0 0 0 0 0 127 0" result="hardAlpha"/>
<feOffset/>
<feGaussianBlur stdDeviation="1"/>
<feColorMatrix type="matrix" values="0 0 0 0 0 0 0 0 0 0 0 0 0 0 0 0 0 0 0.5 0"/>
<feBlend mode="normal" in2="effect1_dropShadow_2254_7709" result="effect2_dropShadow_2254_7709"/>
<feColorMatrix in="SourceAlpha" type="matrix" values="0 0 0 0 0 0 0 0 0 0 0 0 0 0 0 0 0 0 127 0" result="hardAlpha"/>
<feOffset dy="4"/>
<feGaussianBlur stdDeviation="4"/>
<feColorMatrix type="matrix" values="0 0 0 0 0 0 0 0 0 0 0 0 0 0 0 0 0 0 0.5 0"/>
<feBlend mode="normal" in2="effect2_dropShadow_2254_7709" result="effect3_dropShadow_2254_7709"/>
<feBlend mode="normal" in="SourceGraphic" in2="effect3_dropShadow_2254_7709" result="shape"/>
</filter>
</defs>
</svg>
